<?xml version="1.0" encoding="utf-8"?>
<!-- Generator: Adobe Illustrator 17.0.0, SVG Export Plug-In . SVG Version: 6.00 Build 0)  -->
<!DOCTYPE svg PUBLIC "-//W3C//DTD SVG 1.1//EN" "http://www.w3.org/Graphics/SVG/1.1/DTD/svg11.dtd">
<svg version="1.1" id="Layer_1" xmlns="http://www.w3.org/2000/svg" xmlns:xlink="http://www.w3.org/1999/xlink" x="0px" y="0px"
	 width="1200px" height="1200px" viewBox="0 0 1200 1200" enable-background="new 0 0 1200 1200" xml:space="preserve">
<g>
	<g>
		<path fill="#923945" d="M545.927,593.496l80.401-126.256c220.984,208.385,396.69-91.884,396.69-91.884
			c-184.911-56.155-284.67-35.323-338.353,0.199l54.936-86.335c83.34,77.469,149.58-35.502,149.58-35.502
			c-95.03-28.872-130.746-4.151-144.025,15.469c-1.06-2.567-2.85-4.805-5.308-6.375c-1.914-1.218-4.103-1.893-6.209-2.086
			c11.868-20.591,18.078-63.314-47.391-136.232c0,0-73.579,106.747,29.575,149.925l-65.09,102.224
			C668.398,314.589,655.497,209.789,511.926,50c0,0-199.622,289.227,88.862,400.028c0,0,2.416-1.494,6.141-4.605l-94.136,147.839
			c12.364-45.718,2.031-122.223-102.19-238.25c0,0-146.551,212.234,65.152,293.517c0,0,1.356-0.82,3.497-2.499l-84.572,132.886
			c6.519-27.516-0.881-72.669-61.566-140.238c0,0-87.595,126.746,38.909,175.293c0,0,0.179-0.103,0.53-0.337L179.17,1117.352
			c-4.172,6.526-2.183,15.18,4.282,19.324c6.595,4.199,15.221,2.265,19.427-4.261l192.339-302.266
			c95.14,84.511,170.179-43.591,170.179-43.591c-71.589-21.706-114.045-17.148-139.158-5.046l74.006-116.296
			c161.359,149.581,289.344-68.959,289.344-68.959C659.042,556.603,586.297,569.243,545.927,593.496z"/>
	</g>
	<g>
		<path d="M545.927,604.587l80.401-126.257c220.984,208.392,396.69-91.87,396.69-91.87c-184.911-56.162-284.67-35.337-338.353,0.192
			l54.936-86.328c83.34,77.462,149.58-35.502,149.58-35.502c-95.03-28.88-130.746-4.151-144.025,15.462
			c-1.06-2.56-2.85-4.812-5.308-6.368c-1.914-1.239-4.103-1.9-6.209-2.099c11.868-20.591,18.078-63.308-47.391-136.225
			c0,0-73.579,106.753,29.575,149.924l-65.09,102.217c17.665-62.054,4.764-166.853-138.807-326.643
			c0,0-199.622,289.234,88.862,400.042c0,0,2.416-1.494,6.141-4.612l-94.136,147.839c12.364-45.718,2.031-122.223-102.19-238.249
			c0,0-146.551,212.227,65.152,293.516c0,0,1.356-0.813,3.497-2.499l-84.572,132.886c6.519-27.517-0.881-72.664-61.566-140.232
			c0,0-87.595,126.739,38.909,175.286c0,0,0.179-0.103,0.53-0.344L179.17,1128.443c-4.172,6.533-2.183,15.187,4.282,19.331
			c6.595,4.206,15.221,2.271,19.427-4.268l192.339-302.252c95.14,84.497,170.179-43.604,170.179-43.604
			c-71.589-21.7-114.045-17.142-139.158-5.046l74.006-116.282c161.359,149.581,289.344-68.959,289.344-68.959
			C659.042,567.708,586.297,580.34,545.927,604.587z"/>
	</g>
</g>
</svg>
